<svg id="Layer_5" data-name="Layer 5" xmlns="http://www.w3.org/2000/svg" viewBox="0 0 1205 185.95"><defs><style>.cls-1,.cls-2{fill:none;}.cls-1{stroke:#fff;stroke-width:4px;}.cls-1,.cls-3{stroke-miterlimit:10;}.cls-2{stroke:#666;stroke-linecap:round;stroke-linejoin:round;}.cls-2,.cls-3{stroke-width:5px;}.cls-3{fill:#fff;stroke:#000;opacity:0.75;}</style></defs><polyline class="cls-1" points="1194.43 175.84 1063.98 175.84 1063.98 11.72 1194.43 11.72 1063.98 11.72 1194.43 93.08 1063.98 93.08"/><path class="cls-1" d="M1063.61,28c-39.72-14.64-81.33-6.57-103.8,19.64-18.77,21.9-18.33,49.65-18.23,56.1.11,6.84.65,41.21,28,64.53,22.81,19.4,65.57,21.14,95.38,9.82V103.69h-54.7L1065,178" transform="translate(-37.5 -10.61)"/><path class="cls-1" d="M466.07,29.35C426.35,14.71,384.74,22.78,362.27,49,343.49,70.89,343.93,98.64,344,105.1c.11,6.84.65,41.2,28.06,64.52,22.8,19.41,65.57,21.14,95.38,9.82V105.1H412.76l54.71,74.34" transform="translate(-37.5 -10.61)"/><path class="cls-2" d="M503.94,36.36" transform="translate(-37.5 -10.61)"/><path class="cls-1" d="M919.14,20.93V186.45H599.32L503.94,36.36c39.15-7.71,71.89,4.73,79.95,25.25,3.21,8.18,3.46,20.07-1.4,30.86-7.92,17.58-25.26,23-28,23.85l44.88,70.13L694.7,20.93l95.39,165.52V22.34l129,164.11" transform="translate(-37.5 -10.61)"/><polyline class="cls-1" points="112.96 175.84 303.73 175.84 208.34 11.72 112.96 175.84 10.56 175.84 10.56 11.72"/><line class="cls-1" x1="466.44" y1="25.75" x2="466.44" y2="175.84"/><circle class="cls-3" cx="10.92" cy="11.62" r="8.42"/><circle class="cls-3" cx="207.99" cy="10.92" r="8.42"/><circle class="cls-3" cx="466.09" cy="24.94" r="8.42"/><circle class="cls-3" cx="656.85" cy="10.92" r="8.42"/><circle class="cls-3" cx="752.24" cy="10.92" r="8.42"/><circle class="cls-3" cx="1063.63" cy="10.92" r="8.42"/><circle class="cls-3" cx="112.61" cy="175.03" r="8.42"/><circle class="cls-3" cx="303.38" cy="175.03" r="8.42"/><circle class="cls-3" cx="374.91" cy="93.67" r="8.42"/><circle class="cls-3" cx="466.09" cy="175.03" r="8.42"/><circle class="cls-3" cx="561.47" cy="175.03" r="8.42"/><circle class="cls-3" cx="752.24" cy="175.03" r="8.42"/><circle class="cls-3" cx="881.28" cy="175.03" r="8.42"/><circle class="cls-3" cx="972.46" cy="92.27" r="8.42"/><circle class="cls-3" cx="1194.08" cy="175.03" r="8.42"/></svg>